<svg width="16" height="17" viewBox="0 0 16 17" fill="none" xmlns="http://www.w3.org/2000/svg">
<path fill-rule="evenodd" clip-rule="evenodd" d="M7.33325 3.3C4.75592 3.3 2.66659 5.3371 2.66659 7.85C2.66659 10.3629 4.75592 12.4 7.33325 12.4C9.91058 12.4 11.9999 10.3629 11.9999 7.85C11.9999 5.3371 9.91058 3.3 7.33325 3.3ZM1.33325 7.85C1.33325 4.61913 4.01954 2 7.33325 2C10.647 2 13.3333 4.61913 13.3333 7.85C13.3333 11.0809 10.647 13.7 7.33325 13.7C4.01954 13.7 1.33325 11.0809 1.33325 7.85Z" fill="white"/>
<path fill-rule="evenodd" clip-rule="evenodd" d="M10.6286 11.0629C10.889 10.809 11.3111 10.809 11.5714 11.0629L14.4714 13.8904C14.7318 14.1442 14.7318 14.5558 14.4714 14.8096C14.2111 15.0635 13.789 15.0635 13.5286 14.8096L10.6286 11.9821C10.3683 11.7283 10.3683 11.3167 10.6286 11.0629Z" fill="white"/>
</svg>
